<?xml version="1.0" standalone="no"?>
<!DOCTYPE svg PUBLIC "-//W3C//DTD SVG 20010904//EN"
 "http://www.w3.org/TR/2001/REC-SVG-20010904/DTD/svg10.dtd">
<svg version="1.0" xmlns="http://www.w3.org/2000/svg"
 width="512.000000pt" height="512.000000pt" viewBox="0 0 512.000000 512.000000"
 preserveAspectRatio="xMidYMid meet">

<g transform="translate(0.000000,512.000000) scale(0.100000,-0.100000)"
fill="#000000" stroke="none">
<path d="M1855 5104 c-166 -29 -306 -126 -369 -257 -52 -105 -67 -196 -64
-369 l2 -158 -42 -43 c-66 -68 -67 -142 -1 -181 44 -26 86 -15 138 38 l43 44
142 -5 c214 -8 351 25 472 117 141 106 213 342 185 603 -13 123 -33 176 -71
194 -70 32 -297 41 -435 17z m302 -197 c4 -5 8 -61 8 -125 -1 -271 -99 -390
-333 -408 l-77 -6 80 81 c73 75 80 84 80 122 0 34 -6 46 -33 70 -57 51 -93 40
-194 -59 l-68 -66 0 56 c0 67 30 169 65 221 40 58 132 106 230 120 50 8 233 3
242 -6z"/>
<path d="M4045 4558 c-23 -14 -726 -635 -772 -684 -38 -39 -44 -93 -17 -133
20 -28 51 3 -336 -341 -323 -286 -337 -303 -307 -365 9 -19 30 -41 47 -50 l30
-16 -355 -315 c-389 -347 -389 -346 -348 -416 18 -32 33 -38 453 -180 239 -80
438 -148 442 -150 4 -2 -17 -85 -47 -185 -70 -231 -70 -264 -5 -298 25 -13 61
-14 282 -4 139 6 266 15 282 22 34 12 54 53 87 175 12 45 25 82 29 82 3 0 206
-66 449 -146 458 -150 479 -155 514 -116 41 45 41 49 -58 529 -52 251 -95 458
-95 460 0 1 13 0 30 -3 58 -12 120 36 120 94 0 10 -38 204 -85 430 -47 227
-85 416 -85 420 0 5 14 15 32 23 18 8 41 29 51 46 l19 33 -102 492 c-56 271
-106 510 -111 530 -17 65 -89 98 -144 66z m51 -598 c35 -172 64 -316 64 -320
0 -5 -138 37 -306 94 -168 56 -305 106 -304 111 1 11 473 435 479 430 1 -2 32
-144 67 -315z m-307 -415 c156 -52 285 -96 286 -97 2 -2 38 -169 79 -373 42
-203 79 -378 82 -387 5 -15 -1 -18 -40 -18 -60 0 -106 -37 -106 -86 0 -19 41
-231 90 -471 50 -240 89 -440 88 -443 -2 -3 -452 143 -1002 325 l-998 331 321
286 322 286 252 -84 c138 -46 267 -84 285 -84 24 0 42 9 63 29 33 33 38 75 14
121 -17 34 -23 36 -373 151 l-254 83 49 42 c26 23 158 141 293 262 135 121
250 221 255 221 6 1 138 -42 294 -94z m-587 -1741 c60 -20 108 -40 108 -45 0
-5 -7 -36 -16 -68 l-17 -58 -75 -7 c-41 -3 -101 -6 -132 -6 l-58 0 30 98 c39
128 36 122 45 122 4 0 56 -16 115 -36z"/>
<path d="M3784 2790 c-31 -12 -54 -49 -54 -88 0 -44 14 -68 52 -88 66 -34 143
12 143 88 0 70 -73 116 -141 88z"/>
<path d="M2181 3992 c-33 -32 -41 -84 -21 -123 14 -25 62 -49 98 -49 49 0 113
-41 139 -90 50 -95 16 -196 -82 -241 -38 -18 -92 -19 -1138 -19 -1193 0 -1139
3 -1165 -55 -20 -44 -14 -75 22 -111 l34 -34 1134 2 1133 3 65 31 c148 71 228
207 218 370 -12 181 -159 329 -340 342 -64 4 -68 3 -97 -26z"/>
<path d="M47 3089 c-22 -13 -47 -61 -47 -93 0 -14 13 -40 29 -58 l29 -33 1081
-3 c953 -2 1085 0 1111 13 61 32 72 111 21 157 l-31 28 -1088 0 c-720 -1
-1093 -4 -1105 -11z"/>
<path d="M63 2715 c-65 -28 -82 -110 -33 -159 20 -20 33 -21 478 -26 410 -4
460 -7 489 -22 82 -45 116 -153 74 -235 -27 -55 -68 -82 -142 -95 -46 -9 -66
-18 -85 -41 -33 -39 -32 -86 3 -127 27 -32 27 -32 103 -28 132 8 249 89 308
216 23 49 27 70 27 152 0 82 -4 103 -27 152 -56 119 -158 196 -289 217 -37 6
-235 11 -469 11 -322 -1 -412 -4 -437 -15z"/>
<path d="M3330 1293 c-315 -116 -468 -179 -487 -200 -21 -22 -23 -34 -23 -139
l0 -114 -1258 0 c-1378 0 -1306 3 -1404 -59 -56 -36 -111 -107 -135 -176 -15
-42 -18 -87 -18 -290 0 -215 2 -244 18 -268 10 -15 29 -32 43 -38 16 -6 569
-8 1496 -7 l1470 3 24 28 c33 38 33 96 0 134 l-24 28 -1411 3 -1411 2 0 171
c0 193 5 211 70 248 l38 21 1251 0 1251 0 0 -60 0 -60 -1015 0 -1015 0 -32
-29 c-27 -24 -33 -36 -33 -71 0 -35 6 -47 33 -71 l32 -29 1770 0 1770 0 32 29
c27 24 33 36 33 71 0 35 -6 47 -33 71 l-32 29 -435 0 -435 0 0 60 0 60 670 0
c640 0 673 -1 708 -19 67 -35 76 -63 80 -253 l4 -168 -386 0 c-315 0 -392 -3
-415 -14 -66 -35 -66 -137 0 -172 23 -11 107 -14 468 -14 255 0 450 4 465 10
14 5 33 22 43 37 16 24 18 53 18 268 0 204 -3 247 -18 290 -24 69 -79 140
-135 176 -95 60 -82 59 -824 59 l-678 0 0 190 c0 208 -6 236 -55 258 -27 13
-50 14 -75 5z m-70 -508 l0 -265 -120 0 -120 0 2 221 3 222 110 43 c61 24 113
43 118 43 4 1 7 -118 7 -264z"/>
<path d="M3574 190 c-31 -12 -54 -49 -54 -88 0 -44 14 -68 50 -87 43 -22 76
-18 112 14 84 75 -2 204 -108 161z"/>
</g>
</svg>
