<?xml version="1.0" standalone="no"?>
<!DOCTYPE svg PUBLIC "-//W3C//DTD SVG 20010904//EN"
 "http://www.w3.org/TR/2001/REC-SVG-20010904/DTD/svg10.dtd">
<svg version="1.0" xmlns="http://www.w3.org/2000/svg"
 width="512.000000pt" height="512.000000pt" viewBox="0 0 512.000000 512.000000"
 preserveAspectRatio="xMidYMid meet">

<g transform="translate(0.000000,512.000000) scale(0.100000,-0.100000)"
fill="#000000" stroke="none">
<path d="M2805 5109 c-380 -52 -715 -249 -940 -551 -53 -72 -145 -225 -145
-243 0 -5 33 -18 72 -28 268 -66 519 -277 644 -540 l35 -74 69 -6 c37 -3 100
-17 140 -31 333 -116 521 -466 434 -808 -56 -220 -228 -403 -444 -473 l-75
-24 850 -3 c468 -2 888 -2 935 -2 111 2 193 23 310 81 79 39 109 60 180 132
96 97 148 180 187 296 25 73 27 94 28 230 0 139 -2 156 -28 230 -97 278 -333
473 -611 503 -70 8 -65 -1 -90 161 -74 483 -436 913 -909 1080 -139 49 -264
71 -427 76 -80 2 -176 0 -215 -6z"/>
</g>
</svg>
