<?xml version="1.0" standalone="no"?>
<!DOCTYPE svg PUBLIC "-//W3C//DTD SVG 20010904//EN"
 "http://www.w3.org/TR/2001/REC-SVG-20010904/DTD/svg10.dtd">
<svg version="1.0" xmlns="http://www.w3.org/2000/svg"
 width="512.000000pt" height="512.000000pt" viewBox="0 0 512.000000 512.000000"
 preserveAspectRatio="xMidYMid meet">

<g transform="translate(0.000000,512.000000) scale(0.100000,-0.100000)"
fill="#000000" stroke="none">
<path d="M4965 3210 c3 -14 9 -77 12 -140 10 -229 -58 -409 -217 -571 -120
-121 -262 -193 -437 -219 -185 -28 -406 29 -557 145 l-47 36 -87 -23 c-69 -18
-115 -22 -222 -23 -156 0 -245 17 -376 72 l-83 35 -58 -35 c-154 -93 -335
-163 -486 -188 -63 -11 -76 -16 -71 -29 11 -26 17 -107 10 -135 -4 -15 -28
-50 -54 -77 l-47 -51 120 6 c218 12 447 81 634 192 l92 55 47 -24 c60 -30 159
-62 239 -77 91 -17 319 -6 407 19 l68 20 52 -39 c203 -154 496 -192 736 -96
383 155 572 580 430 967 -27 74 -118 230 -105 180z"/>
<path d="M65 2601 c34 -96 110 -215 194 -305 166 -174 384 -273 627 -283 135
-6 219 5 336 43 l76 25 17 77 c9 42 23 103 30 135 l13 57 -94 0 c-68 0 -106
-5 -141 -19 -145 -57 -372 -73 -525 -38 -194 45 -349 135 -485 281 -61 65 -62
65 -48 27z"/>
</g>
</svg>
